# xmcd
#
# Track frame offsets: 
#        180
#        14615
#        33385
#        53542
#        66937
#        90285
#        107805
#        120642
#        135302
#        155610
#
# Disc length: 2270 seconds
#
# Revision: 3
# Processed by: cddbd v1.5.2PL0 Copyright (c) Steve Scherf et al.
# Submitted via: ExactAudioCopy v1.1
#
DISCID=7908dc0a
DTITLE=Roomful Of Blues - Dressed Up To Get Messed Up
DYEAR=1986
DGENRE=Blues
TTITLE0=Money Talks
TTITLE1=What Happened To The Sugar (In My Lemonade)?
TTITLE2=Let's Ride
TTITLE3=Yes Indeed!
TTITLE4=Albi's Boogie
TTITLE5=The Last Time
TTITLE6=Oh Oh
TTITLE7=Dressed Up To Get Messed Up
TTITLE8=He Knows The Rules
TTITLE9=Whiplash
EXTD=
EXTT0=
EXTT1=
EXTT2=
EXTT3=
EXTT4=
EXTT5=
EXTT6=
EXTT7=
EXTT8=
EXTT9=
PLAYORDER=
